<svg id="Capa_1" enable-background="new 0 0 512 512" height="512" viewBox="0 0 512 512" width="512" xmlns="http://www.w3.org/2000/svg"><g><path d="m464 0h-416c-26.468 0-48 21.533-48 48v416c0 26.467 21.532 48 48 48h416c26.468 0 48-21.533 48-48v-416c0-26.467-21.532-48-48-48zm18 464c0 9.925-8.075 18-18 18h-416c-9.925 0-18-8.075-18-18v-416c0-9.925 8.075-18 18-18h416c9.925 0 18 8.075 18 18z"/><path d="m140.978 120.5h-17.864v-45.25c0-8.284-6.716-15-15-15s-15 6.716-15 15v45.25h-17.864c-8.284 0-15 6.716-15 15s6.716 15 15 15h17.863v226c0 8.284 6.716 15 15 15s15-6.716 15-15v-226h17.864c8.284 0 15-6.716 15-15s-6.715-15-14.999-15z"/><path d="m239.568 301.25h-17.864v-226c0-8.284-6.716-15-15-15s-15 6.716-15 15v226h-17.863c-8.284 0-15 6.716-15 15s6.716 15 15 15h17.863v45.25c0 8.284 6.716 15 15 15s15-6.716 15-15v-45.25h17.864c8.284 0 15-6.716 15-15s-6.715-15-15-15z"/><path d="m338.159 210.875h-17.863v-135.625c0-8.284-6.716-15-15-15s-15 6.716-15 15v135.625h-17.864c-8.284 0-15 6.716-15 15s6.716 15 15 15h17.864v135.625c0 8.284 6.716 15 15 15s15-6.716 15-15v-135.625h17.863c8.284 0 15-6.716 15-15s-6.716-15-15-15z"/><path d="m436.75 90.375h-17.863v-15.125c0-8.284-6.716-15-15-15s-15 6.716-15 15v15.125h-17.864c-8.284 0-15 6.716-15 15s6.716 15 15 15h17.864v256.125c0 8.284 6.716 15 15 15s15-6.716 15-15v-256.125h17.863c8.284 0 15-6.716 15-15s-6.716-15-15-15z"/><path d="m108.114 421.75c-7.846 0-15.363 6.899-15 15 .364 8.127 6.591 15 15 15 7.846 0 15.363-6.899 15-15-.364-8.127-6.591-15-15-15z"/><path d="m206.705 421.75c-7.846 0-15.363 6.899-15 15 .364 8.127 6.591 15 15 15 7.846 0 15.363-6.899 15-15-.364-8.127-6.591-15-15-15z"/><path d="m305.295 421.75c-7.846 0-15.363 6.899-15 15 .364 8.127 6.591 15 15 15 7.846 0 15.363-6.899 15-15-.364-8.127-6.59-15-15-15z"/><path d="m403.886 421.75c-7.846 0-15.363 6.899-15 15 .364 8.127 6.591 15 15 15 7.846 0 15.363-6.899 15-15-.364-8.127-6.59-15-15-15z"/></g></svg>